HIERARCHY
ROOT Hips
{
	OFFSET -3.958830 18.904000 13.208200
	CHANNELS 6 Xposition Yposition Zposition Zrotation Yrotation Xrotation 
	JOINT LHipJoint
	{
		OFFSET 0.000000 0.000000 0.000000
		CHANNELS 3 Zrotation Yrotation Xrotation
		JOINT LeftUpLeg
		{
			OFFSET 1.800000 -1.400000 0.085000
			CHANNELS 3 Zrotation Yrotation Xrotation
			JOINT LeftLeg
			{
				OFFSET 2.215000 -6.000000 0.000000
				CHANNELS 3 Zrotation Yrotation Xrotation
				JOINT LeftFoot
				{
					OFFSET 2.500000 -6.900000 0.000000
					CHANNELS 3 Zrotation Yrotation Xrotation
					JOINT LeftToeBase
					{
						OFFSET 0.200000 -0.500000 1.950000
						CHANNELS 3 Zrotation Yrotation Xrotation
						End Site
						{
							OFFSET 0.000000 0.000000 0.000000
						}
					}
				}
			}
		}
	}
	JOINT RHipJoint
	{
		OFFSET 0.000000 0.000000 0.000000
		CHANNELS 3 Zrotation Yrotation Xrotation
		JOINT RightUpLeg
		{
			OFFSET -1.800000 -1.400000 0.085000
			CHANNELS 3 Zrotation Yrotation Xrotation
			JOINT RightLeg
			{
				OFFSET -2.215000 -6.000000 0.000000
				CHANNELS 3 Zrotation Yrotation Xrotation
				JOINT RightFoot
				{
					OFFSET -2.500000 -6.900000 0.000000
					CHANNELS 3 Zrotation Yrotation Xrotation
					JOINT RightToeBase
					{
						OFFSET -0.200000 -0.500000 1.950000
						CHANNELS 3 Zrotation Yrotation Xrotation
						End Site
						{
							OFFSET 0.000000 0.000000 0.000000
						}
					}
				}
			}
		}
	}
	JOINT LowerBack
	{
		OFFSET 0.000000 0.000000 0.000000
		CHANNELS 3 Zrotation Yrotation Xrotation
		JOINT Spine
		{
			OFFSET -0.087000 1.940000 -0.288900
			CHANNELS 3 Zrotation Yrotation Xrotation
			JOINT Spine1
			{
				OFFSET 0.000000 1.950000 0.060000
				CHANNELS 3 Zrotation Yrotation Xrotation
				JOINT Neck
				{
					OFFSET 0.000000 0.000000 0.000000
					CHANNELS 3 Zrotation Yrotation Xrotation
					JOINT Neck1
					{
						OFFSET 0.000000 1.600000 0.340000
						CHANNELS 3 Zrotation Yrotation Xrotation
						JOINT Head
						{
							OFFSET 0.000000 1.667000 -0.240000
							CHANNELS 3 Zrotation Yrotation Xrotation
							End Site
							{
								OFFSET 0.000000 0.000000 0.000000
							}
						}
					}
				}
				JOINT LeftShoulder
				{
					OFFSET 0.000000 0.000000 0.000000
					CHANNELS 3 Zrotation Yrotation Xrotation
					JOINT LeftArm
					{
						OFFSET 2.700000 1.550000 -0.730000
						CHANNELS 3 Zrotation Yrotation Xrotation
						JOINT LeftForeArm
						{
							OFFSET 5.450000 0.000000 0.000000
							CHANNELS 3 Zrotation Yrotation Xrotation
							JOINT LeftHand
							{
								OFFSET 3.450000 0.000000 0.000000
								CHANNELS 3 Zrotation Yrotation Xrotation
								JOINT LeftHandIndex1
								{
									OFFSET 0.750000 0.000000 0.000000
									CHANNELS 3 Zrotation Yrotation Xrotation
									End Site
									{
										OFFSET 0.000000 0.000000 0.000000
									}
								}
							}
						}
					}
				}
				JOINT RightShoulder
				{
					OFFSET 0.000000 0.000000 0.000000
					CHANNELS 3 Zrotation Yrotation Xrotation
					JOINT RightArm
					{
						OFFSET -2.700000 1.550000 -0.730000
						CHANNELS 3 Zrotation Yrotation Xrotation
						JOINT RightForeArm
						{
							OFFSET -5.450000 0.000000 0.000000
							CHANNELS 3 Zrotation Yrotation Xrotation
							JOINT RightHand
							{
								OFFSET -3.450000 0.000000 0.000000
								CHANNELS 3 Zrotation Yrotation Xrotation
								JOINT RightHandIndex1
								{
									OFFSET -0.750000 0.000000 0.000000
									CHANNELS 3 Zrotation Yrotation Xrotation
									End Site
									{
										OFFSET 0.000000 0.000000 0.000000
									}
								}
							}
						}
					}
				}
			}
		}
	}
}
MOTION
Frames: 8
Frame Time: 0.016667
-5.088600 15.742610 5.700830 -6.951051 -33.908068 -21.740038 -15.279287 13.401355 2.956717 -2.473006 -0.602861 -11.329005 -9.884078 13.376826 36.325720 0.795726 7.181796 2.262469 0.534290 0.191270 0.323690 17.995249 -8.868310 5.130307 -22.763807 16.603228 -11.067518 58.892814 -30.861511 39.237336 -2.493445 -11.343461 0.846443 -0.104060 -0.110560 -0.067650 -2.884358 -4.443021 -8.952935 14.103135 -12.594780 43.480023 -18.759405 2.915174 15.089715 18.267474 -13.341562 -36.801202 -25.562964 -7.262234 34.603734 10.657200 -19.173330 -21.754370 -13.241537 -18.457545 5.705030 -26.561192 24.352033 -12.899190 30.755969 -27.886192 -7.868921 -2.741054 3.537533 0.675970 -0.443570 0.134450 0.314560 -15.942542 55.399833 17.830741 -6.985101 15.064086 -14.375683 -20.113567 -3.221256 -1.826254 3.866591 -1.627723 -0.024290 0.117220 -0.356260 -0.016230 
-5.096920 15.771940 5.678630 -6.196299 -33.414186 -24.704246 -15.112871 13.266671 2.829281 -4.147222 0.236847 -7.381192 -8.404983 12.312147 34.180209 0.763790 6.690399 2.457014 0.490360 0.245670 0.163910 18.144347 -9.247149 5.166188 -23.220866 17.162085 -8.763805 56.564415 -31.858078 42.282520 -2.498475 -11.681321 0.757879 -0.050580 -0.014310 -0.097710 -3.430036 -3.550661 -8.833161 11.217906 -18.715278 45.255269 -26.294762 1.146560 21.335605 26.101667 -17.229506 -39.977394 -29.557629 -8.293928 29.598499 12.985270 -21.057990 -21.953220 -4.894747 -13.734301 4.737257 -31.744431 24.216584 -14.689382 32.855377 -25.034852 -8.647459 -2.787479 3.874241 0.531240 -0.387050 0.053910 0.336350 -36.066724 57.966726 13.055299 -8.563766 14.171703 -10.648290 -14.990115 -11.563640 -1.379559 4.893260 -1.444526 -0.000690 0.160520 -0.303210 0.076630 
-5.075110 15.831720 5.719300 -7.629228 -34.606238 -20.437208 -15.318361 13.569943 2.927069 -2.484233 -0.337399 -10.417951 -10.135126 12.201116 32.253463 0.700290 6.464181 2.492546 0.556970 0.247800 0.336290 17.975974 -8.778325 5.027643 -22.673512 17.272367 -11.635384 54.072759 -31.964631 43.925075 -2.553639 -11.788514 0.736562 -0.087810 -0.134740 -0.025270 -2.767797 -4.741247 -8.969607 17.416831 -12.160794 42.414062 -18.594312 3.111069 12.345559 16.390145 -11.848905 -35.056755 -23.430737 -7.361323 35.915968 6.264310 -18.332200 -19.034800 -16.564709 -16.344409 4.408450 -22.370150 27.347959 -12.367092 28.428574 -32.819405 -7.935785 -2.710416 3.507932 0.608810 -0.399770 0.152010 0.324410 -10.532703 50.425726 20.927323 -9.748899 15.648987 -9.959368 -15.329287 -1.586049 -0.979484 3.575197 -1.179858 0.033360 0.064720 -0.384920 -0.001150 
-5.064810 15.960430 5.704340 -6.498586 -34.057546 -19.543989 -15.357270 13.656681 3.059823 -3.082169 -0.627994 -10.019648 -10.956681 11.480024 29.170448 0.548206 6.075924 2.638506 0.527170 0.172830 0.368910 17.930572 -8.803335 4.857267 -22.449056 16.789821 -12.027287 48.555058 -30.604680 46.234882 -2.483189 -11.780329 0.733542 -0.104910 -0.124650 -0.055640 -2.541187 -4.933464 -9.127589 18.195861 -8.466805 41.662736 -15.699916 4.480136 6.525375 12.902697 -10.645318 -32.872941 -21.459747 -5.953499 40.914916 4.434640 -17.053350 -17.325260 -19.720386 -17.704592 6.219655 -18.977132 28.772097 -9.519970 25.180096 -31.221048 -5.843787 -2.737117 3.341793 0.681720 -0.400440 0.143350 0.302460 -1.711644 46.945406 19.019611 -6.953298 13.155537 -7.820576 -14.514463 3.564635 -0.807820 3.149982 -1.140729 -0.043850 0.112680 -0.361250 -0.054100 
-5.040800 16.107560 5.683220 -6.988435 -33.062722 -18.606753 -15.353671 13.914381 3.159683 -2.910795 -0.535599 -8.068370 -10.561171 9.822939 24.325050 0.409776 5.317819 2.873098 0.632530 0.269380 0.469540 17.899008 -8.997428 4.556455 -19.718974 15.741263 -10.311593 41.815728 -27.879386 47.782040 -2.399074 -11.500257 0.773562 -0.064350 -0.210790 -0.005750 -2.364029 -5.198448 -9.083866 19.641724 -7.455794 41.120836 -14.902411 4.700737 2.804463 11.650986 -9.497705 -30.275413 -19.780001 -4.720720 44.786069 2.600530 -15.440080 -17.537820 -22.719299 -17.222453 7.092152 -14.363967 29.318377 -5.958664 23.490212 -25.185755 -3.653925 -2.805179 3.360010 0.708060 -0.437460 0.213060 0.307120 2.352395 43.576795 17.621963 -6.269513 11.972560 -6.212715 -13.789170 4.347557 -0.712319 3.066390 -1.150554 0.014140 0.053700 -0.416590 -0.072600 
-5.015690 16.258650 5.616800 -6.490609 -31.004860 -19.396458 -15.338330 14.078844 3.338867 -3.511775 -0.444355 -5.136632 -9.974459 8.347493 19.492453 0.354502 4.780534 3.084296 0.648960 0.309430 0.450670 17.884028 -9.381818 4.077747 -17.103472 13.645236 -6.854376 34.231636 -24.145123 48.039207 -2.185697 -10.882086 0.952004 -0.047410 -0.183270 0.020710 -2.310677 -5.255225 -8.910523 18.505808 -8.277957 41.269603 -14.487746 3.408660 4.306291 12.068682 -9.940214 -30.806084 -20.814778 -2.724152 44.950398 2.668300 -13.972990 -16.767230 -21.763246 -16.589821 7.245089 -14.656624 28.773614 -4.731357 23.038573 -18.650288 -2.334219 -2.920904 3.307886 0.684760 -0.414700 0.224170 0.329320 0.548014 43.074987 18.682197 -6.793494 9.815044 -5.692231 -13.526752 3.176459 -0.628486 3.084099 -1.132777 0.039470 0.061940 -0.414650 -0.047820 
-4.984940 16.404210 5.551450 -6.402400 -26.496235 -17.676732 -15.330554 14.308643 3.596532 -4.452428 -0.767115 -4.579282 -8.600579 6.829879 15.199463 0.187519 4.268019 3.289046 0.619430 0.283640 0.442570 17.853216 -9.783690 3.508055 -14.453472 9.951706 -4.751842 26.555452 -19.584407 45.084663 -1.814459 -9.592094 1.345941 -0.043630 -0.128370 0.016590 -2.262504 -5.301881 -8.775965 18.252698 -7.768519 39.500412 -12.913518 2.475162 -0.672198 10.164950 -8.992127 -27.861087 -19.337570 -1.428925 47.577784 1.829220 -12.058380 -16.768170 -21.202072 -15.194144 7.865528 -11.842663 26.949525 -2.390013 19.809276 -13.438840 -0.968970 -3.053664 3.049879 0.722900 -0.383100 0.229400 0.324600 2.354821 38.224579 17.915687 -5.255033 9.920181 -3.850830 -12.365122 4.692684 -0.393268 2.879921 -1.007701 -0.009920 0.149810 -0.370330 -0.063560 
-4.989510 16.532400 5.505600 -5.736745 -23.256793 -15.076148 -15.310333 14.412480 3.839199 -5.507732 -0.938566 -4.796385 -7.309279 5.596218 10.725422 0.042019 3.760273 3.454353 0.634020 0.268670 0.493910 17.840892 -10.176910 3.094939 -11.850044 7.089286 -4.316707 19.795085 -15.386359 41.571354 -1.425632 -8.197149 1.756124 -0.033830 -0.157830 0.011410 -2.291423 -5.036895 -8.715560 17.288594 -6.208778 36.278824 -11.050727 2.629638 -5.581137 8.417105 -8.244916 -25.453981 -18.517270 -0.758871 50.628881 0.300590 -10.970110 -14.485900 -19.783944 -13.396956 7.511948 -8.020557 24.565046 -0.873284 14.888243 -11.233337 -0.325942 -3.104058 2.905331 0.740990 -0.382140 0.221340 0.294360 3.935307 33.737584 17.187067 -4.326644 9.474152 -2.355149 -10.243021 6.144713 -0.114024 2.773967 -0.964418 -0.027430 0.131490 -0.365570 -0.106080 
